<?xml version="1.0" standalone="no"?><!DOCTYPE svg PUBLIC "-//W3C//DTD SVG 1.1//EN" "http://www.w3.org/Graphics/SVG/1.1/DTD/svg11.dtd"><svg t="1624268752615" class="icon" viewBox="0 0 1024 1024" version="1.1" xmlns="http://www.w3.org/2000/svg" p-id="1221" width="48" height="48" xmlns:xlink="http://www.w3.org/1999/xlink"><defs><style type="text/css"></style></defs><path d="M512 806.07760345a294.07760345 294.07760345 0 1 0-294.07760345-294.07760345 294.07760345 294.07760345 0 0 0 294.07760345 294.07760345z m0-533.9142272a239.83662375 239.83662375 0 1 1-239.83662375 239.83662375 240.16337625 240.16337625 0 0 1 239.83662375-239.83662375z" p-id="1222" fill="#1296db"></path><path d="M482.26548688 507.09870688v9.80258625l106.84819593 85.60925812a20.91218531 20.91218531 0 0 0 13.39686844 4.57454062 21.23893781 21.23893781 0 0 0 13.39686844-37.90333593l-98.02586719-79.07419969v-75.15316594a21.23893781 21.23893781 0 1 0-42.80462905 0v88.87678781z" p-id="1223" fill="#1296db"></path><path d="M406.78556844 92.12253219a433.27433625 433.27433625 0 0 1 447.32471062 155.20762406l-59.46902625 32.67528937 163.37644594 96.39210375V185.90061313l-65.35057781 36.92307656A480 480 0 0 0 33.96051781 554.80462906l46.39891032-11.76310406a433.60108875 433.60108875 0 0 1 326.42614031-450.91899281zM617.21443156 931.87746781a433.27433625 433.27433625 0 0 1-447.32471062-155.20762406l59.46902625-32.67528937L64.67528937 646.62219219v190.49693625l65.35057876-36.92307657a480 480 0 0 0 860.01361406-331.00068093l-46.39891031 11.76310406a433.60108875 433.60108875 0 0 1-326.42614032 450.91899281z" p-id="1224" fill="#1296db"></path></svg>